<svg viewBox="0 0 300 100" xmlns="http://www.w3.org/2000/svg">
    <line x1="10" y1="20" x2="40" y2="10" stroke="black" />
    <line x1="10" y1="20" x2="40" y2="30" stroke="black" />
    <line x1="10" y1="20" x2="40" y2="50" stroke="black" />
    <line x1="10" y1="20" x2="40" y2="70" stroke="black" />
    <circle cx="10" cy="20" r="5" stroke="black" stroke-width="1" fill="#fff" />
    <line x1="10" y1="40" x2="40" y2="10" stroke="black" />
    <line x1="10" y1="40" x2="40" y2="30" stroke="black" />
    <line x1="10" y1="40" x2="40" y2="50" stroke="black" />
    <line x1="10" y1="40" x2="40" y2="70" stroke="black" />
    <circle cx="10" cy="40" r="5" stroke="black" stroke-width="1" fill="#fff" />
    <line x1="10" y1="60" x2="40" y2="10" stroke="black" />
    <line x1="10" y1="60" x2="40" y2="30" stroke="black" />
    <line x1="10" y1="60" x2="40" y2="50" stroke="black" />
    <line x1="10" y1="60" x2="40" y2="70" stroke="black" />
    <circle cx="10" cy="60" r="5" stroke="black" stroke-width="1" fill="#fff" />

    <line x1="40" y1="10" x2="70" y2="30" stroke="black" />
    <line x1="40" y1="10" x2="70" y2="50" stroke="black" />
    <circle cx="40" cy="10" r="5" stroke="black" stroke-width="1" fill="#fff" />
    <line x1="40" y1="30" x2="70" y2="30" stroke="black" />
    <line x1="40" y1="30" x2="70" y2="50" stroke="black" />
    <circle cx="40" cy="30" r="5" stroke="black" stroke-width="1" fill="#fff" />
    <line x1="40" y1="50" x2="70" y2="30" stroke="black" />
    <line x1="40" y1="50" x2="70" y2="50" stroke="black" />
    <circle cx="40" cy="50" r="5" stroke="black" stroke-width="1" fill="#fff" />
    <line x1="40" y1="70" x2="70" y2="30" stroke="black" />
    <line x1="40" y1="70" x2="70" y2="50" stroke="black" />
    <circle cx="40" cy="70" r="5" stroke="black" stroke-width="1" fill="#fff" />

    <circle cx="70" cy="30" r="5" stroke="black" stroke-width="1" fill="#fff" />
    <circle cx="70" cy="50" r="5" stroke="black" stroke-width="1" fill="#fff" />
</svg>
